# xmcd
#
# Track frame offsets:
#	150
#	15519
#	28906
#	46514
#	64128
#	83969
#	99196
#	111179
#	131603
#	141305
#	157376
#	178687
#
# Disc length: 2588 seconds
#
# Revision: 1
# Processed by: cddbd v1.4PL0 Copyright (c) Steve Scherf et al.
# Submitted via: audiograbber 1.81.01
#
DISCID=9f0a1a0c
DTITLE=Motel Kings - Red Light Fever
DYEAR=2003
DGENRE=Blues
TTITLE0=Shut Up
TTITLE1=Groover
TTITLE2=Pieces
TTITLE3=I'm A King
TTITLE4=Motel Boogie
TTITLE5=Night Into Day
TTITLE6=In My Arms
TTITLE7=Come And Have A Jive
TTITLE8=3 Times Fool Blues
TTITLE9=3 Times Fool
TTITLE10=Leaving
TTITLE11=It Ain't Easy
EXTD=
EXTT0=
EXTT1=
EXTT2=
EXTT3=
EXTT4=
EXTT5=
EXTT6=
EXTT7=
EXTT8=
EXTT9=
EXTT10=
EXTT11=
PLAYORDER=
